[img]http://img15.imageshack.us/img15/2990/muppetsho.jpg[/img]
[code]

Imdb: 
http://www.imdb.com/title/tt1204342/

Plot:
With the help of three fans, The Muppets must reunite to save their old theater from a greedy oil tycoon.

Sources:
FYA

Notes:
Encoded Video and added few filters to video :)
so enjoy!! until line  audio comes out :P
Encoded by 26K

Greetz:
To all the people who have helped me :P you know hwo you are

Video
ID                                       : 0
Format                                   : MPEG-4 Visual
Format profile                           : Advanced Simple@L5
Format settings, BVOP                    : 2
Format settings, QPel                    : No
Format settings, GMC                     : No warppoints
Format settings, Matrix                  : Default (H.263)
Codec ID                                 : XVID
Codec ID/Hint                            : XviD
Duration                                 : 1h 43mn
Bit rate                                 : 1 700 Kbps
Width                                    : 720 pixels
Height                                   : 304 pixels
Display aspect ratio                     : 2.35:1
Frame rate                               : 29.970 fps
Color space                              : YUV
Chroma subsampling                       : 4:2:0
Bit depth                                : 8 bits
Scan type                                : Progressive
Compression mode                         : Lossy
Bits/(Pixel*Frame)                       : 0.259
Stream size                              : 1.23 GiB (92%)
Writing library                          : XviD 63

Audio
ID                                       : 1
Format                                   : MPEG Audio
Format version                           : Version 1
Format profile                           : Layer 3
Codec ID                                 : 55
Codec ID/Hint                            : MP3
Duration                                 : 1h 43mn
Bit rate mode                            : Constant
Bit rate                                 : 128 Kbps
Channel(s)                               : 2 channels
Sampling rate                            : 44.1 KHz
Compression mode                         : Lossy
Stream size                              : 94.5 MiB (7%)
Alignment                                : Aligned on interleaves
Interleave, duration                     : 33 ms (1.00 video frame)

[/code]
Screens:
[img]http://img341.imageshack.us/img341/9793/vlcsnap2011120512h31m06.png[/img]
[img]http://img85.imageshack.us/img85/2460/vlcsnap2011120512h31m10.png[/img]
[img]http://img21.imageshack.us/img21/508/vlcsnap2011120512h31m18.png[/img]
[img]http://img88.imageshack.us/img88/7678/vlcsnap2011120512h31m34.png[/img]
[img]http://img845.imageshack.us/img845/3268/vlcsnap2011120512h31m47.png[/img]